<?xml version="1.0" encoding="iso-8859-1"?>
<!-- Generator: Adobe Illustrator 25.0.1, SVG Export Plug-In . SVG Version: 6.00 Build 0)  -->
<svg version="1.1" xmlns="http://www.w3.org/2000/svg" xmlns:xlink="http://www.w3.org/1999/xlink" x="0px" y="0px"
	 viewBox="0 0 109.322 64.67" style="enable-background:new 0 0 109.322 64.67;" xml:space="preserve">
<g id="Layer_1">
	<g>
		<path id="Path_24875_12_" style="fill:#293688;" d="M1.626,55.376l4.865-33.903c-0.87,0.124-1.926,0.248-3.168,0.372
			c-1.242,0.124-2.298,0.186-3.168,0.186l0.932-6.523c0.924-0.01,1.839-0.184,2.702-0.513c0.931-0.341,1.809-0.812,2.609-1.398
			c0.794-0.578,1.5-1.268,2.095-2.05c0.579-0.753,0.978-1.629,1.165-2.561h6.803l-6.636,46.39L1.626,55.376z"/>
		<path id="Path_24877_12_" style="fill:#293688;" d="M64.412,11.456c-1.334-1.644-3.245-2.467-5.732-2.469h-1.677
			c-2.351-0.025-4.621,0.86-6.335,2.469c-1.801,1.648-2.92,3.931-3.358,6.851l-1.365,9.113h7.735l1.273-8.923
			c0.252-2.052,0.872-3.081,1.863-3.077h0.186c0.933,0,1.276,1.026,1.028,3.077l-1.867,12.86c-0.668-0.492-1.385-0.914-2.139-1.26
			c-0.7-0.333-1.463-0.509-2.238-0.516h-0.186c-2.42,0-4.129,0.838-5.125,2.515c-0.991,1.677-1.675,3.945-2.053,6.806l-1.024,7.45
			c-0.186,1.433-0.31,2.723-0.372,3.87c-0.077,0.988,0.018,1.981,0.281,2.936c0.21,0.752,0.67,1.409,1.305,1.863
			c0.846,0.491,1.82,0.718,2.796,0.653h0.28c0.878-0.012,1.746-0.186,2.561-0.512c0.93-0.356,1.82-0.809,2.655-1.351l-0.186,1.582
			h7.735l5.22-36.994C66.168,15.421,65.746,13.107,64.412,11.456z M53.745,48.033c-0.372,1.305-0.963,1.957-1.772,1.957h-0.186
			c-0.934,0-1.213-1.024-0.838-3.073l1.119-8.577c0.371-2.049,0.992-3.073,1.863-3.073h0.653c0.444,0.005,0.827,0.311,0.929,0.743
			L53.745,48.033z"/>
		<path id="Path_24878_12_" style="fill:#293688;" d="M79.159,27.435l1.305-8.946c0.129-0.726,0.113-1.469-0.047-2.189
			c-0.155-0.59-0.481-0.885-0.979-0.885h-0.186c-0.544,0.029-1.02,0.376-1.214,0.885c-0.34,0.687-0.561,1.427-0.653,2.189
			l-0.652,4.006c-0.307,1.717,0.06,3.486,1.025,4.939c0.973,1.357,2.015,2.664,3.122,3.915c1.164,1.324,2.194,2.76,3.075,4.287
			c0.901,1.553,1.196,3.541,0.885,5.963l-0.746,4.753c-0.242,2.593-1.418,5.011-3.308,6.803c-1.721,1.632-4.008,2.534-6.38,2.515
			h-1.583c-2.485,0-4.379-0.839-5.684-2.516c-1.305-1.677-1.74-3.945-1.305-6.802l1.214-9.132h6.897l-1.305,8.946
			c-0.186,2.05,0.249,3.075,1.305,3.075h0.372c1.118,0,1.833-1.025,2.143-3.075l0.558-4.008c0.199-1.154,0.103-2.34-0.28-3.447
			c-0.381-1.008-0.915-1.951-1.585-2.796c-0.702-0.89-1.449-1.745-2.236-2.561c-0.813-0.847-1.546-1.767-2.188-2.749
			c-0.667-1.025-1.184-2.139-1.537-3.309c-0.382-1.381-0.445-2.831-0.186-4.24l0.652-4.752c0.32-2.566,1.502-4.947,3.352-6.754
			c1.717-1.675,4.031-2.597,6.43-2.562h0.838c2.485,0,4.396,0.839,5.731,2.516c1.335,1.677,1.786,3.945,1.351,6.802l-1.304,9.131
			H79.159z"/>
		<path id="Path_24879_12_" style="fill:#293688;" d="M100.804,27.437l1.304-8.946c0.129-0.726,0.113-1.469-0.047-2.189
			c-0.155-0.59-0.481-0.885-0.978-0.885h-0.186c-0.544,0.03-1.019,0.376-1.214,0.885c-0.34,0.687-0.56,1.428-0.652,2.189
			l-0.652,4.006c-0.307,1.717,0.06,3.486,1.025,4.938c0.973,1.357,2.015,2.664,3.122,3.915c1.163,1.324,2.193,2.76,3.075,4.287
			c0.901,1.553,1.196,3.541,0.885,5.964l-0.743,4.752c-0.242,2.593-1.418,5.011-3.309,6.802c-1.721,1.632-4.008,2.534-6.38,2.515
			h-1.587c-2.485,0-4.379-0.839-5.684-2.516c-1.305-1.678-1.74-3.945-1.305-6.803l1.214-9.132h6.897l-1.305,8.945
			c-0.186,2.05,0.249,3.075,1.305,3.075h0.372c1.118,0,1.833-1.025,2.143-3.075l0.558-4.008c0.2-1.154,0.104-2.34-0.279-3.447
			c-0.38-1.008-0.915-1.951-1.584-2.795c-0.702-0.89-1.449-1.745-2.237-2.561c-0.813-0.847-1.546-1.767-2.189-2.749
			c-0.666-1.025-1.184-2.138-1.537-3.308c-0.382-1.381-0.446-2.831-0.186-4.24l0.652-4.753c0.321-2.566,1.504-4.948,3.355-6.754
			c1.717-1.675,4.031-2.597,6.43-2.563h0.839c2.485,0,4.396,0.839,5.731,2.516c1.335,1.678,1.786,3.945,1.351,6.802l-1.306,9.132
			L100.804,27.437z"/>
		<path id="Path_24876_12_" style="fill:#293688;" d="M41.633,11.501c-1.52-1.677-3.585-2.515-6.195-2.515H24.35l-6.569,46.406
			h8.202l1.07-7.55h2.986c2.359,0.069,4.688-0.545,6.707-1.768c1.862-1.182,3.042-3.263,3.539-6.244l2.986-21.243
			C43.699,15.54,43.153,13.178,41.633,11.501z M34.787,19.889l-2.516,17.333c-0.247,2.486-0.934,3.729-2.048,3.729H28.08
			l3.539-25.067h1.953C34.815,15.883,35.219,17.219,34.787,19.889L34.787,19.889z"/>
	</g>
</g>
<g id="Layer_2" style="display:none;">
	<g transform="translate(-0.001 0)" style="display:inline;">
		<path style="fill:#E9F56B;" d="M35.611,31.402c0,0-3.595-12.388,5.708-14.09c4.25-0.775,11.149,5.346,26.041,7.045
			s21.96-2.113,28.3-7.36c4.268-3.609,8.309-7.479,12.1-11.587c0,0,2.247,16.437-20.454,14.769
			c-10.25-0.753-29.392-12.193-43.043-17.2s-18.681,1.748-23.83,6.753s-11.2,4.688-11.951,0.947
			c0.291-0.875,3.376-0.413,3.134-3.012C11.47,7.035,9.162,8.055,7.365,7.326S5.178,8.371,3.988,8.76s-2.963,0.948-2.72,1.968
			s1.456,1.214,2.843,1.506s3.5,6.438,8.381,7.216s6.581-0.487,10.2-0.584s8.089,4.931,5.609,13.6S15.571,63.34,9.96,63.34
			c-3.983,0,9.279-16.52,20.332-28.373c3.133-3.361,8.452-4.032,9.547,1.214C40.009,37.008,36.849,34.754,35.611,31.402z"/>
		<path style="fill:#222222;" d="M9.959,64.578c-0.766,0.042-1.479-0.394-1.79-1.095c-0.362-0.832-1.037-2.382,6.459-12.111
			c2.7-3.5,6.143-7.635,9.753-11.725c1.042-2.457,1.953-4.966,2.729-7.519c1.166-4.079,0.785-7.77-1.044-10.13
			c-0.759-1.119-1.996-1.821-3.345-1.9c-1.099,0.045-2.193,0.179-3.271,0.4c-2.354,0.514-4.785,0.571-7.16,0.168
			c-3.72-0.592-5.953-3.731-7.43-5.807c-0.336-0.51-0.711-0.992-1.123-1.443l-0.12-0.024c-1.4-0.292-3.146-0.655-3.557-2.38
			c-0.5-2.108,2.082-2.952,3.47-3.405l0.067-0.022C3.819,7.46,4.02,7.297,4.188,7.104C5.051,6.012,6.54,5.634,7.82,6.182
			c0.769,0.213,1.577,0.248,2.361,0.1c0.866-0.093,2.317-0.25,2.63,1.106c0.012,0.054,0.021,0.108,0.026,0.163
			c0.244,2.6-1.845,3.343-2.832,3.66c0.311,0.424,0.758,0.729,1.266,0.864c1.876,0.581,5.168-0.192,8.293-3.23
			C19.992,8.429,20.418,8,20.851,7.569C25.564,2.843,31.434-3.037,44.68,1.818c5.13,1.881,11.1,4.7,16.877,7.418
			c9.648,4.548,19.624,9.252,25.833,9.708c1.195,0.087,2.338,0.125,3.429,0.114c1.41-0.923,2.762-1.93,4.05-3.017
			c4.224-3.575,8.223-7.407,11.976-11.473c0.324-0.351,0.822-0.484,1.278-0.341c0.457,0.144,0.789,0.537,0.854,1.011
			c0.41,4.062-0.907,8.108-3.627,11.152c-3.037,3.234-7.691,4.95-13.869,5.124c-5.885,3.551-13.009,5.35-24.264,4.065
			c-6.543-0.789-12.934-2.538-18.966-5.193c-3.039-1.239-5.236-2.135-6.713-1.863c-1.722,0.22-3.257,1.194-4.189,2.659
			c-2.2,3.544-0.711,9.3-0.565,9.833c0.027,0.076,0.056,0.149,0.087,0.223c0.1,0.021,0.2,0.047,0.3,0.075
			c2.08,0.654,3.591,2.457,3.873,4.619c0.17,0.697-0.241,1.403-0.93,1.6c-1.292,0.37-3.447-1.665-4.8-3.939
			c-1.593,0.227-3.053,1.012-4.12,2.216c-1.645,1.765-3.23,3.511-4.74,5.215C22.359,50.851,15.273,64.578,9.959,64.578z
			 M20.659,47.786c-5.519,6.686-9.268,12.017-10.045,14.145c1.218-0.549,3.96-2.75,8.6-11.358c0.498-0.922,0.981-1.851,1.451-2.788
			L20.659,47.786z M22.787,17.629c2.088,0.104,4.014,1.156,5.229,2.857c2.316,2.987,2.851,7.479,1.466,12.322
			c-0.145,0.508-0.342,1.129-0.586,1.845l0.488-0.525c1.3-1.443,3.014-2.45,4.907-2.882c-0.413-1.707-1.509-7.373,0.953-11.356
			c1.297-2.063,3.437-3.451,5.849-3.795c2.188-0.4,4.664,0.609,8.092,2.006c5.824,2.566,11.994,4.259,18.311,5.026
			c8.636,0.986,14.509,0.04,18.973-1.79c-6.665-0.769-16.471-5.392-25.965-9.867c-5.725-2.7-11.646-5.491-16.673-7.333
			C32.067-0.175,27.254,4.649,22.601,9.313c-0.44,0.441-0.875,0.877-1.312,1.3c-3.389,3.292-7.606,4.791-10.746,3.818
			c-1.667-0.459-2.934-1.818-3.276-3.513c-0.042-0.21-0.029-0.429,0.038-0.633c0.35-0.75,1.052-1.276,1.871-1.4l0.175-0.057
			C8.517,8.885,7.68,8.763,6.896,8.471c-0.374-0.151-0.4-0.164-0.978,0.4C5.494,9.345,4.962,9.71,4.367,9.935L4.299,9.958
			c-0.558,0.167-1.101,0.378-1.625,0.631c0.471,0.171,0.955,0.301,1.448,0.388l0.237,0.05c0.947,0.2,1.57,1.076,2.514,2.4
			c1.313,1.844,3.109,4.371,5.807,4.8c2.102,0.357,4.252,0.303,6.333-0.16c1.2-0.244,2.418-0.39,3.642-0.438L22.787,17.629z
			 M106.413,8.621c-3.161,3.266-6.5,6.39-9.96,9.316c-0.286,0.235-0.569,0.467-0.857,0.7c2.996-0.416,5.778-1.787,7.933-3.909
			c1.561-1.695,2.569-3.826,2.89-6.108L106.413,8.621z"/>
		<path style="fill:#191919;" d="M34.687,64.551c-0.875-0.127-1.703-0.48-2.4-1.024c-0.849-0.702-1.408-1.695-1.568-2.785
			c-0.16-0.973-0.15-1.966,0.029-2.936c0.279-1.697,0.747-3.358,1.394-4.952c0.447-1.161,1.209-2.175,2.2-2.928
			c0.862-0.63,1.86-1.048,2.914-1.222c1.284-0.248,2.599-0.282,3.894-0.1c0.622,0.082,1.223,0.279,1.772,0.581
			c0.482,0.253,0.881,0.639,1.15,1.112c0.307,0.51,0.221,1.164-0.208,1.577c-0.481,0.465-1.249,0.452-1.714-0.029
			c-0.058-0.06-0.111-0.127-0.155-0.198c-0.088-0.157-0.23-0.276-0.4-0.335c-0.305-0.112-0.62-0.196-0.941-0.252
			c-1.195-0.159-2.41-0.073-3.571,0.252c-1.04,0.289-1.913,1-2.407,1.96c-0.333,0.648-0.597,1.328-0.787,2.031
			c-0.342,1.036-0.595,2.099-0.756,3.178c-0.08,0.553-0.084,1.114-0.014,1.668c0.046,0.968,0.78,1.765,1.741,1.889
			c0.517,0.107,1.045,0.149,1.572,0.126c0.967,0.003,1.93-0.131,2.859-0.4c0.352-0.101,0.686-0.26,0.986-0.47
			c0.102-0.072,0.171-0.182,0.19-0.306c0.12-0.691,0.252-1.385,0.378-2.069c0.006-0.039,0.011-0.077,0.021-0.14
			c-0.596,0.135-1.175,0.338-1.724,0.606c-0.059,0.031-0.114,0.069-0.165,0.112c-0.505,0.426-1.257,0.375-1.7-0.116
			c-0.452-0.491-0.438-1.25,0.031-1.724c0.177-0.174,0.379-0.321,0.6-0.435c0.972-0.528,2.036-0.864,3.134-0.991
			c0.441-0.057,0.889,0.003,1.3,0.174c0.798,0.326,1.257,1.168,1.1,2.015c-0.189,1.045-0.389,2.091-0.573,3.136
			c-0.096,0.536-0.355,1.029-0.743,1.411c-0.564,0.534-1.245,0.926-1.99,1.146c-0.869,0.279-1.769,0.447-2.68,0.5
			c-0.414,0.029-0.83,0.05-1.243,0.05C35.702,64.668,35.192,64.631,34.687,64.551z M44.842,64.662
			c-0.676-0.009-1.217-0.563-1.209-1.239c0.001-0.08,0.01-0.159,0.026-0.237c0.19-0.927,0.4-1.85,0.606-2.771l1.466-6.663
			c0.095-0.635,0.66-1.091,1.3-1.05h5.67c0.566-0.004,1.062,0.379,1.2,0.928c0.181,0.662-0.208,1.346-0.87,1.527
			c-0.119,0.033-0.242,0.047-0.366,0.044H48.11c-0.126,0-0.185,0.026-0.212,0.164c-0.115,0.564-0.243,1.125-0.368,1.688
			c-0.009,0.04-0.014,0.078-0.025,0.137h3.244c0.561-0.003,1.053,0.375,1.194,0.918c0.19,0.661-0.193,1.35-0.854,1.54c0,0,0,0,0,0
			c-0.126,0.037-0.257,0.053-0.388,0.048h-3.59c-0.126,0-0.173,0.039-0.2,0.162c-0.154,0.73-0.317,1.457-0.477,2.186
			c-0.009,0.038-0.013,0.076-0.021,0.126h4.165c0.54-0.007,1.022,0.34,1.185,0.855c0.172,0.518-0.009,1.087-0.447,1.411
			c-0.202,0.151-0.448,0.233-0.7,0.233h-3.4l-2.379-0.008L44.842,64.662z M64.752,64.654c-0.58-0.084-1.02-0.567-1.049-1.152
			c-0.01-0.183,0.016-0.366,0.079-0.538c1.511-4.073,3.023-8.152,4.572-12.217c0.751-1.758,2.714-2.66,4.537-2.084
			c1.114,0.337,1.906,1.325,1.99,2.486c0.107,0.85,0.126,1.709,0.19,2.564l0.283,4.131l0.023,0.009
			c0.021-0.042,0.044-0.082,0.064-0.126c1.237-2.48,2.465-4.964,3.713-7.431c0.461-0.911,1.327-1.548,2.334-1.717
			c0.557-0.123,1.134-0.12,1.689,0.009c1.196,0.272,2.074,1.295,2.16,2.519c0.019,0.495-0.012,0.991-0.094,1.48
			c-0.161,1.489-0.33,2.975-0.495,4.462c-0.2,1.806-0.4,3.611-0.6,5.416c-0.04,0.356-0.082,0.71-0.118,1.067
			c-0.056,0.679-0.652,1.184-1.331,1.128h-0.044c-0.684-0.089-1.166-0.715-1.077-1.398c0-0.001,0-0.001,0-0.002v-0.006
			c0.229-2.057,0.458-4.114,0.686-6.171l0.618-5.553c0.005-0.042,0.008-0.084,0.008-0.126c-0.013-0.277-0.1-0.39-0.378-0.4
			c-0.23-0.007-0.461,0.014-0.686,0.065c-0.239,0.059-0.436,0.226-0.533,0.452c-1.909,3.834-3.82,7.667-5.732,11.5
			c-0.182,0.416-0.583,0.694-1.036,0.718c-0.444,0.04-0.872-0.174-1.108-0.552c-0.127-0.191-0.199-0.413-0.208-0.642
			c-0.146-2.133-0.293-4.267-0.44-6.4l-0.317-4.626c-0.024-0.348-0.157-0.481-0.5-0.519c-0.281-0.042-0.568,0.009-0.817,0.146
			c-0.244,0.136-0.432,0.355-0.528,0.617c-1.5,4.018-3,8.036-4.5,12.053c-0.168,0.502-0.637,0.841-1.166,0.844
			c-0.063,0.002-0.127,0-0.19-0.006H64.752z M89.015,64.512c-1.417-0.249-2.529-1.355-2.785-2.771
			c-0.103-0.444-0.15-0.899-0.139-1.354c0.026-0.872,0.139-1.738,0.335-2.588c0.317-1.539,0.637-3.078,0.958-4.616
			c0.081-0.678,0.696-1.163,1.375-1.082c0.678,0.081,1.163,0.696,1.082,1.375c-0.002,0.014-0.004,0.028-0.006,0.042
			c-0.007,0.051-0.017,0.101-0.03,0.151c-0.36,1.725-0.717,3.452-1.071,5.18c-0.161,0.68-0.212,1.381-0.15,2.077
			c0.091,0.782,0.4,1.112,1.183,1.181c0.916,0.132,1.844-0.145,2.539-0.756c0.554-0.503,0.93-1.171,1.072-1.906
			c0.422-2.092,0.83-4.188,1.243-6.281c0.109-0.67,0.741-1.124,1.411-1.015c0.577,0.094,1.007,0.582,1.03,1.166
			c-0.004,0.227-0.034,0.453-0.089,0.674c-0.4,2.028-0.743,4.068-1.218,6.081c-0.388,2.128-1.98,3.835-4.076,4.369
			c-0.495,0.138-1.006,0.209-1.519,0.21c-0.386-0.005-0.771-0.052-1.147-0.139L89.015,64.512z M99.422,62.48
			c-0.11-0.6-0.152-1.214-0.218-1.822c-0.194-1.8-0.386-3.598-0.577-5.394c-0.064-0.6-0.135-1.207-0.194-1.811
			c-0.049-0.679,0.461-1.27,1.14-1.319c0.651-0.047,1.226,0.42,1.312,1.067c0.227,2.108,0.452,4.217,0.676,6.328l0.252,2.3
			c0.003,0.058,0.013,0.115,0.029,0.171c0.015,0.042,0.045,0.108,0.072,0.111c0.06-0.001,0.119-0.017,0.17-0.049
			c0.034-0.021,0.05-0.073,0.072-0.112l4.84-8.807c0.273-0.548,0.91-0.809,1.489-0.611c0.655,0.232,0.998,0.95,0.767,1.605
			c0,0.001,0,0.001-0.001,0.002c-0.024,0.069-0.053,0.136-0.088,0.2c-0.63,1.143-1.26,2.285-1.889,3.424
			c-1.008,1.83-2.008,3.661-3.023,5.487c-0.428,0.832-1.279,1.362-2.215,1.378c-1.298,0.072-2.435-0.862-2.615-2.149L99.422,62.48z
			 M56.676,64.561c-0.67-0.166-1.078-0.843-0.913-1.513l0.009-0.033l1.819-7.635c0.013-0.055,0.025-0.112,0.04-0.186h-1.853
			c-0.335,0.008-0.657-0.13-0.882-0.378c-0.363-0.357-0.46-0.904-0.244-1.365c0.173-0.472,0.632-0.777,1.134-0.756
			c2.393-0.005,4.786-0.005,7.179,0c0.69,0.002,1.249,0.563,1.247,1.253c-0.002,0.69-0.563,1.249-1.253,1.247l0,0h-2.783
			c-0.072,0.3-0.142,0.594-0.213,0.882c-0.596,2.51-1.194,5.018-1.795,7.523c-0.123,0.661-0.757,1.097-1.418,0.976l-0.073-0.016
			L56.676,64.561z"/>
	</g>
</g>
</svg>
